<svg xmlns="http://www.w3.org/2000/svg" width="908" height="172" font-family="system-ui, sans-serif" font-size="10">
<rect width="908" height="172" fill="white"/>
<text x="30" y="18" font-weight="600">Attendance (last 365 days)</text>
<rect x="30" y="104" width="14" height="14" rx="2" fill="#ebedf0"><title>2024-08-16 : 0 participants</title></rect>
<rect x="30" y="120" width="14" height="14" rx="2" fill="#ebedf0"><title>2024-08-17 : 0 participants</title></rect>
<rect x="30" y="136" width="14" height="14" rx="2" fill="#ebedf0"><title>2024-08-18 : 0 participants</title></rect>
<rect x="46" y="40" width="14" height="14" rx="2" fill="#ebedf0"><title>2024-08-19 : 0 participants</title></rect>
<rect x="46" y="56" width="14" height="14" rx="2" fill="#ebedf0"><title>2024-08-20 : 0 participants</title></rect>
<rect x="46" y="72" width="14" height="14" rx="2" fill="#ebedf0"><title>2024-08-21 : 0 participants</title></rect>
<rect x="46" y="88" width="14" height="14" rx="2" fill="#ebedf0"><title>2024-08-22 : 0 participants</title></rect>
<rect x="46" y="104" width="14" height="14" rx="2" fill="#ebedf0"><title>2024-08-23 : 0 participants</title></rect>
<rect x="46" y="120" width="14" height="14" rx="2" fill="#ebedf0"><title>2024-08-24 : 0 participants</title></rect>
<rect x="46" y="136" width="14" height="14" rx="2" fill="#ebedf0"><title>2024-08-25 : 0 participants</title></rect>
<rect x="62" y="40" width="14" height="14" rx="2" fill="#ebedf0"><title>2024-08-26 : 0 participants</title></rect>
<rect x="62" y="56" width="14" height="14" rx="2" fill="#ebedf0"><title>2024-08-27 : 0 participants</title></rect>
<rect x="62" y="72" width="14" height="14" rx="2" fill="#ebedf0"><title>2024-08-28 : 0 participants</title></rect>
<rect x="62" y="88" width="14" height="14" rx="2" fill="#ebedf0"><title>2024-08-29 : 0 participants</title></rect>
<rect x="62" y="104" width="14" height="14" rx="2" fill="#ebedf0"><title>2024-08-30 : 0 participants</title></rect>
<rect x="62" y="120" width="14" height="14" rx="2" fill="#ebedf0"><title>2024-08-31 : 0 participants</title></rect>
<rect x="62" y="136" width="14" height="14" rx="2" fill="#ebedf0"><title>2024-09-01 : 0 participants</title></rect>
<rect x="78" y="40" width="14" height="14" rx="2" fill="#ebedf0"><title>2024-09-02 : 0 participants</title></rect>
<rect x="78" y="56" width="14" height="14" rx="2" fill="#ebedf0"><title>2024-09-03 : 0 participants</title></rect>
<rect x="78" y="72" width="14" height="14" rx="2" fill="#ebedf0"><title>2024-09-04 : 0 participants</title></rect>
<rect x="78" y="88" width="14" height="14" rx="2" fill="#ebedf0"><title>2024-09-05 : 0 participants</title></rect>
<rect x="78" y="104" width="14" height="14" rx="2" fill="#ebedf0"><title>2024-09-06 : 0 participants</title></rect>
<rect x="78" y="120" width="14" height="14" rx="2" fill="#ebedf0"><title>2024-09-07 : 0 participants</title></rect>
<rect x="78" y="136" width="14" height="14" rx="2" fill="#ebedf0"><title>2024-09-08 : 0 participants</title></rect>
<rect x="94" y="40" width="14" height="14" rx="2" fill="#ebedf0"><title>2024-09-09 : 0 participants</title></rect>
<rect x="94" y="56" width="14" height="14" rx="2" fill="#ebedf0"><title>2024-09-10 : 0 participants</title></rect>
<rect x="94" y="72" width="14" height="14" rx="2" fill="#ebedf0"><title>2024-09-11 : 0 participants</title></rect>
<rect x="94" y="88" width="14" height="14" rx="2" fill="#ebedf0"><title>2024-09-12 : 0 participants</title></rect>
<rect x="94" y="104" width="14" height="14" rx="2" fill="#ebedf0"><title>2024-09-13 : 0 participants</title></rect>
<rect x="94" y="120" width="14" height="14" rx="2" fill="#ebedf0"><title>2024-09-14 : 0 participants</title></rect>
<rect x="94" y="136" width="14" height="14" rx="2" fill="#ebedf0"><title>2024-09-15 : 0 participants</title></rect>
<rect x="110" y="40" width="14" height="14" rx="2" fill="#ebedf0"><title>2024-09-16 : 0 participants</title></rect>
<rect x="110" y="56" width="14" height="14" rx="2" fill="#ebedf0"><title>2024-09-17 : 0 participants</title></rect>
<rect x="110" y="72" width="14" height="14" rx="2" fill="#ebedf0"><title>2024-09-18 : 0 participants</title></rect>
<rect x="110" y="88" width="14" height="14" rx="2" fill="#ebedf0"><title>2024-09-19 : 0 participants</title></rect>
<rect x="110" y="104" width="14" height="14" rx="2" fill="#ebedf0"><title>2024-09-20 : 0 participants</title></rect>
<rect x="110" y="120" width="14" height="14" rx="2" fill="#ebedf0"><title>2024-09-21 : 0 participants</title></rect>
<rect x="110" y="136" width="14" height="14" rx="2" fill="#ebedf0"><title>2024-09-22 : 0 participants</title></rect>
<rect x="126" y="40" width="14" height="14" rx="2" fill="#ebedf0"><title>2024-09-23 : 0 participants</title></rect>
<rect x="126" y="56" width="14" height="14" rx="2" fill="#ebedf0"><title>2024-09-24 : 0 participants</title></rect>
<rect x="126" y="72" width="14" height="14" rx="2" fill="#ebedf0"><title>2024-09-25 : 0 participants</title></rect>
<rect x="126" y="88" width="14" height="14" rx="2" fill="#ebedf0"><title>2024-09-26 : 0 participants</title></rect>
<rect x="126" y="104" width="14" height="14" rx="2" fill="#ebedf0"><title>2024-09-27 : 0 participants</title></rect>
<rect x="126" y="120" width="14" height="14" rx="2" fill="#ebedf0"><title>2024-09-28 : 0 participants</title></rect>
<rect x="126" y="136" width="14" height="14" rx="2" fill="#ebedf0"><title>2024-09-29 : 0 participants</title></rect>
<rect x="142" y="40" width="14" height="14" rx="2" fill="#ebedf0"><title>2024-09-30 : 0 participants</title></rect>
<rect x="142" y="56" width="14" height="14" rx="2" fill="#ebedf0"><title>2024-10-01 : 0 participants</title></rect>
<rect x="142" y="72" width="14" height="14" rx="2" fill="#ebedf0"><title>2024-10-02 : 0 participants</title></rect>
<rect x="142" y="88" width="14" height="14" rx="2" fill="#ebedf0"><title>2024-10-03 : 0 participants</title></rect>
<rect x="142" y="104" width="14" height="14" rx="2" fill="#ebedf0"><title>2024-10-04 : 0 participants</title></rect>
<rect x="142" y="120" width="14" height="14" rx="2" fill="#ebedf0"><title>2024-10-05 : 0 participants</title></rect>
<rect x="142" y="136" width="14" height="14" rx="2" fill="#ebedf0"><title>2024-10-06 : 0 participants</title></rect>
<rect x="158" y="40" width="14" height="14" rx="2" fill="#ebedf0"><title>2024-10-07 : 0 participants</title></rect>
<rect x="158" y="56" width="14" height="14" rx="2" fill="#ebedf0"><title>2024-10-08 : 0 participants</title></rect>
<rect x="158" y="72" width="14" height="14" rx="2" fill="#ebedf0"><title>2024-10-09 : 0 participants</title></rect>
<rect x="158" y="88" width="14" height="14" rx="2" fill="#ebedf0"><title>2024-10-10 : 0 participants</title></rect>
<rect x="158" y="104" width="14" height="14" rx="2" fill="#ebedf0"><title>2024-10-11 : 0 participants</title></rect>
<rect x="158" y="120" width="14" height="14" rx="2" fill="#ebedf0"><title>2024-10-12 : 0 participants</title></rect>
<rect x="158" y="136" width="14" height="14" rx="2" fill="#ebedf0"><title>2024-10-13 : 0 participants</title></rect>
<rect x="174" y="40" width="14" height="14" rx="2" fill="#ebedf0"><title>2024-10-14 : 0 participants</title></rect>
<rect x="174" y="56" width="14" height="14" rx="2" fill="#ebedf0"><title>2024-10-15 : 0 participants</title></rect>
<rect x="174" y="72" width="14" height="14" rx="2" fill="#ebedf0"><title>2024-10-16 : 0 participants</title></rect>
<rect x="174" y="88" width="14" height="14" rx="2" fill="#ebedf0"><title>2024-10-17 : 0 participants</title></rect>
<rect x="174" y="104" width="14" height="14" rx="2" fill="#ebedf0"><title>2024-10-18 : 0 participants</title></rect>
<rect x="174" y="120" width="14" height="14" rx="2" fill="#ebedf0"><title>2024-10-19 : 0 participants</title></rect>
<rect x="174" y="136" width="14" height="14" rx="2" fill="#ebedf0"><title>2024-10-20 : 0 participants</title></rect>
<rect x="190" y="40" width="14" height="14" rx="2" fill="#ebedf0"><title>2024-10-21 : 0 participants</title></rect>
<rect x="190" y="56" width="14" height="14" rx="2" fill="#ebedf0"><title>2024-10-22 : 0 participants</title></rect>
<rect x="190" y="72" width="14" height="14" rx="2" fill="#ebedf0"><title>2024-10-23 : 0 participants</title></rect>
<rect x="190" y="88" width="14" height="14" rx="2" fill="#ebedf0"><title>2024-10-24 : 0 participants</title></rect>
<rect x="190" y="104" width="14" height="14" rx="2" fill="#ebedf0"><title>2024-10-25 : 0 participants</title></rect>
<rect x="190" y="120" width="14" height="14" rx="2" fill="#ebedf0"><title>2024-10-26 : 0 participants</title></rect>
<rect x="190" y="136" width="14" height="14" rx="2" fill="#ebedf0"><title>2024-10-27 : 0 participants</title></rect>
<rect x="206" y="40" width="14" height="14" rx="2" fill="#ebedf0"><title>2024-10-28 : 0 participants</title></rect>
<rect x="206" y="56" width="14" height="14" rx="2" fill="#ebedf0"><title>2024-10-29 : 0 participants</title></rect>
<rect x="206" y="72" width="14" height="14" rx="2" fill="#ebedf0"><title>2024-10-30 : 0 participants</title></rect>
<rect x="206" y="88" width="14" height="14" rx="2" fill="#ebedf0"><title>2024-10-31 : 0 participants</title></rect>
<rect x="206" y="104" width="14" height="14" rx="2" fill="#ebedf0"><title>2024-11-01 : 0 participants</title></rect>
<rect x="206" y="120" width="14" height="14" rx="2" fill="#ebedf0"><title>2024-11-02 : 0 participants</title></rect>
<rect x="206" y="136" width="14" height="14" rx="2" fill="#ebedf0"><title>2024-11-03 : 0 participants</title></rect>
<rect x="222" y="40" width="14" height="14" rx="2" fill="#ebedf0"><title>2024-11-04 : 0 participants</title></rect>
<rect x="222" y="56" width="14" height="14" rx="2" fill="#ebedf0"><title>2024-11-05 : 0 participants</title></rect>
<rect x="222" y="72" width="14" height="14" rx="2" fill="#ebedf0"><title>2024-11-06 : 0 participants</title></rect>
<rect x="222" y="88" width="14" height="14" rx="2" fill="#ebedf0"><title>2024-11-07 : 0 participants</title></rect>
<rect x="222" y="104" width="14" height="14" rx="2" fill="#ebedf0"><title>2024-11-08 : 0 participants</title></rect>
<rect x="222" y="120" width="14" height="14" rx="2" fill="#ebedf0"><title>2024-11-09 : 0 participants</title></rect>
<rect x="222" y="136" width="14" height="14" rx="2" fill="#ebedf0"><title>2024-11-10 : 0 participants</title></rect>
<rect x="238" y="40" width="14" height="14" rx="2" fill="#ebedf0"><title>2024-11-11 : 0 participants</title></rect>
<rect x="238" y="56" width="14" height="14" rx="2" fill="#ebedf0"><title>2024-11-12 : 0 participants</title></rect>
<rect x="238" y="72" width="14" height="14" rx="2" fill="#ebedf0"><title>2024-11-13 : 0 participants</title></rect>
<rect x="238" y="88" width="14" height="14" rx="2" fill="#ebedf0"><title>2024-11-14 : 0 participants</title></rect>
<rect x="238" y="104" width="14" height="14" rx="2" fill="#ebedf0"><title>2024-11-15 : 0 participants</title></rect>
<rect x="238" y="120" width="14" height="14" rx="2" fill="#ebedf0"><title>2024-11-16 : 0 participants</title></rect>
<rect x="238" y="136" width="14" height="14" rx="2" fill="#ebedf0"><title>2024-11-17 : 0 participants</title></rect>
<rect x="254" y="40" width="14" height="14" rx="2" fill="#ebedf0"><title>2024-11-18 : 0 participants</title></rect>
<rect x="254" y="56" width="14" height="14" rx="2" fill="#ebedf0"><title>2024-11-19 : 0 participants</title></rect>
<rect x="254" y="72" width="14" height="14" rx="2" fill="#ebedf0"><title>2024-11-20 : 0 participants</title></rect>
<rect x="254" y="88" width="14" height="14" rx="2" fill="#ebedf0"><title>2024-11-21 : 0 participants</title></rect>
<rect x="254" y="104" width="14" height="14" rx="2" fill="#ebedf0"><title>2024-11-22 : 0 participants</title></rect>
<rect x="254" y="120" width="14" height="14" rx="2" fill="#ebedf0"><title>2024-11-23 : 0 participants</title></rect>
<rect x="254" y="136" width="14" height="14" rx="2" fill="#ebedf0"><title>2024-11-24 : 0 participants</title></rect>
<rect x="270" y="40" width="14" height="14" rx="2" fill="#ebedf0"><title>2024-11-25 : 0 participants</title></rect>
<rect x="270" y="56" width="14" height="14" rx="2" fill="#ebedf0"><title>2024-11-26 : 0 participants</title></rect>
<rect x="270" y="72" width="14" height="14" rx="2" fill="#ebedf0"><title>2024-11-27 : 0 participants</title></rect>
<rect x="270" y="88" width="14" height="14" rx="2" fill="#ebedf0"><title>2024-11-28 : 0 participants</title></rect>
<rect x="270" y="104" width="14" height="14" rx="2" fill="#ebedf0"><title>2024-11-29 : 0 participants</title></rect>
<rect x="270" y="120" width="14" height="14" rx="2" fill="#ebedf0"><title>2024-11-30 : 0 participants</title></rect>
<rect x="270" y="136" width="14" height="14" rx="2" fill="#ebedf0"><title>2024-12-01 : 0 participants</title></rect>
<rect x="286" y="40" width="14" height="14" rx="2" fill="#ebedf0"><title>2024-12-02 : 0 participants</title></rect>
<rect x="286" y="56" width="14" height="14" rx="2" fill="#ebedf0"><title>2024-12-03 : 0 participants</title></rect>
<rect x="286" y="72" width="14" height="14" rx="2" fill="#ebedf0"><title>2024-12-04 : 0 participants</title></rect>
<rect x="286" y="88" width="14" height="14" rx="2" fill="#ebedf0"><title>2024-12-05 : 0 participants</title></rect>
<rect x="286" y="104" width="14" height="14" rx="2" fill="#ebedf0"><title>2024-12-06 : 0 participants</title></rect>
<rect x="286" y="120" width="14" height="14" rx="2" fill="#ebedf0"><title>2024-12-07 : 0 participants</title></rect>
<rect x="286" y="136" width="14" height="14" rx="2" fill="#ebedf0"><title>2024-12-08 : 0 participants</title></rect>
<rect x="302" y="40" width="14" height="14" rx="2" fill="#ebedf0"><title>2024-12-09 : 0 participants</title></rect>
<rect x="302" y="56" width="14" height="14" rx="2" fill="#ebedf0"><title>2024-12-10 : 0 participants</title></rect>
<rect x="302" y="72" width="14" height="14" rx="2" fill="#ebedf0"><title>2024-12-11 : 0 participants</title></rect>
<rect x="302" y="88" width="14" height="14" rx="2" fill="#ebedf0"><title>2024-12-12 : 0 participants</title></rect>
<rect x="302" y="104" width="14" height="14" rx="2" fill="#ebedf0"><title>2024-12-13 : 0 participants</title></rect>
<rect x="302" y="120" width="14" height="14" rx="2" fill="#ebedf0"><title>2024-12-14 : 0 participants</title></rect>
<rect x="302" y="136" width="14" height="14" rx="2" fill="#ebedf0"><title>2024-12-15 : 0 participants</title></rect>
<rect x="318" y="40" width="14" height="14" rx="2" fill="#ebedf0"><title>2024-12-16 : 0 participants</title></rect>
<rect x="318" y="56" width="14" height="14" rx="2" fill="#ebedf0"><title>2024-12-17 : 0 participants</title></rect>
<rect x="318" y="72" width="14" height="14" rx="2" fill="#ebedf0"><title>2024-12-18 : 0 participants</title></rect>
<rect x="318" y="88" width="14" height="14" rx="2" fill="#ebedf0"><title>2024-12-19 : 0 participants</title></rect>
<rect x="318" y="104" width="14" height="14" rx="2" fill="#ebedf0"><title>2024-12-20 : 0 participants</title></rect>
<rect x="318" y="120" width="14" height="14" rx="2" fill="#ebedf0"><title>2024-12-21 : 0 participants</title></rect>
<rect x="318" y="136" width="14" height="14" rx="2" fill="#ebedf0"><title>2024-12-22 : 0 participants</title></rect>
<rect x="334" y="40" width="14" height="14" rx="2" fill="#ebedf0"><title>2024-12-23 : 0 participants</title></rect>
<rect x="334" y="56" width="14" height="14" rx="2" fill="#ebedf0"><title>2024-12-24 : 0 participants</title></rect>
<rect x="334" y="72" width="14" height="14" rx="2" fill="#ebedf0"><title>2024-12-25 : 0 participants</title></rect>
<rect x="334" y="88" width="14" height="14" rx="2" fill="#ebedf0"><title>2024-12-26 : 0 participants</title></rect>
<rect x="334" y="104" width="14" height="14" rx="2" fill="#ebedf0"><title>2024-12-27 : 0 participants</title></rect>
<rect x="334" y="120" width="14" height="14" rx="2" fill="#ebedf0"><title>2024-12-28 : 0 participants</title></rect>
<rect x="334" y="136" width="14" height="14" rx="2" fill="#ebedf0"><title>2024-12-29 : 0 participants</title></rect>
<rect x="350" y="40" width="14" height="14" rx="2" fill="#ebedf0"><title>2024-12-30 : 0 participants</title></rect>
<rect x="350" y="56" width="14" height="14" rx="2" fill="#ebedf0"><title>2024-12-31 : 0 participants</title></rect>
<rect x="350" y="72" width="14" height="14" rx="2" fill="#ebedf0"><title>2025-01-01 : 0 participants</title></rect>
<rect x="350" y="88" width="14" height="14" rx="2" fill="#ebedf0"><title>2025-01-02 : 0 participants</title></rect>
<rect x="350" y="104" width="14" height="14" rx="2" fill="#ebedf0"><title>2025-01-03 : 0 participants</title></rect>
<rect x="350" y="120" width="14" height="14" rx="2" fill="#ebedf0"><title>2025-01-04 : 0 participants</title></rect>
<rect x="350" y="136" width="14" height="14" rx="2" fill="#ebedf0"><title>2025-01-05 : 0 participants</title></rect>
<rect x="366" y="40" width="14" height="14" rx="2" fill="#ebedf0"><title>2025-01-06 : 0 participants</title></rect>
<rect x="366" y="56" width="14" height="14" rx="2" fill="#ebedf0"><title>2025-01-07 : 0 participants</title></rect>
<rect x="366" y="72" width="14" height="14" rx="2" fill="#ebedf0"><title>2025-01-08 : 0 participants</title></rect>
<rect x="366" y="88" width="14" height="14" rx="2" fill="#ebedf0"><title>2025-01-09 : 0 participants</title></rect>
<rect x="366" y="104" width="14" height="14" rx="2" fill="#ebedf0"><title>2025-01-10 : 0 participants</title></rect>
<rect x="366" y="120" width="14" height="14" rx="2" fill="#ebedf0"><title>2025-01-11 : 0 participants</title></rect>
<rect x="366" y="136" width="14" height="14" rx="2" fill="#ebedf0"><title>2025-01-12 : 0 participants</title></rect>
<rect x="382" y="40" width="14" height="14" rx="2" fill="#ebedf0"><title>2025-01-13 : 0 participants</title></rect>
<rect x="382" y="56" width="14" height="14" rx="2" fill="#ebedf0"><title>2025-01-14 : 0 participants</title></rect>
<rect x="382" y="72" width="14" height="14" rx="2" fill="#ebedf0"><title>2025-01-15 : 0 participants</title></rect>
<rect x="382" y="88" width="14" height="14" rx="2" fill="#ebedf0"><title>2025-01-16 : 0 participants</title></rect>
<rect x="382" y="104" width="14" height="14" rx="2" fill="#ebedf0"><title>2025-01-17 : 0 participants</title></rect>
<rect x="382" y="120" width="14" height="14" rx="2" fill="#ebedf0"><title>2025-01-18 : 0 participants</title></rect>
<rect x="382" y="136" width="14" height="14" rx="2" fill="#ebedf0"><title>2025-01-19 : 0 participants</title></rect>
<rect x="398" y="40" width="14" height="14" rx="2" fill="#ebedf0"><title>2025-01-20 : 0 participants</title></rect>
<rect x="398" y="56" width="14" height="14" rx="2" fill="#ebedf0"><title>2025-01-21 : 0 participants</title></rect>
<rect x="398" y="72" width="14" height="14" rx="2" fill="#ebedf0"><title>2025-01-22 : 0 participants</title></rect>
<rect x="398" y="88" width="14" height="14" rx="2" fill="#ebedf0"><title>2025-01-23 : 0 participants</title></rect>
<rect x="398" y="104" width="14" height="14" rx="2" fill="#ebedf0"><title>2025-01-24 : 0 participants</title></rect>
<rect x="398" y="120" width="14" height="14" rx="2" fill="#ebedf0"><title>2025-01-25 : 0 participants</title></rect>
<rect x="398" y="136" width="14" height="14" rx="2" fill="#ebedf0"><title>2025-01-26 : 0 participants</title></rect>
<rect x="414" y="40" width="14" height="14" rx="2" fill="#ebedf0"><title>2025-01-27 : 0 participants</title></rect>
<rect x="414" y="56" width="14" height="14" rx="2" fill="#ebedf0"><title>2025-01-28 : 0 participants</title></rect>
<rect x="414" y="72" width="14" height="14" rx="2" fill="#ebedf0"><title>2025-01-29 : 0 participants</title></rect>
<rect x="414" y="88" width="14" height="14" rx="2" fill="#ebedf0"><title>2025-01-30 : 0 participants</title></rect>
<rect x="414" y="104" width="14" height="14" rx="2" fill="#ebedf0"><title>2025-01-31 : 0 participants</title></rect>
<rect x="414" y="120" width="14" height="14" rx="2" fill="#ebedf0"><title>2025-02-01 : 0 participants</title></rect>
<rect x="414" y="136" width="14" height="14" rx="2" fill="#ebedf0"><title>2025-02-02 : 0 participants</title></rect>
<rect x="430" y="40" width="14" height="14" rx="2" fill="#ebedf0"><title>2025-02-03 : 0 participants</title></rect>
<rect x="430" y="56" width="14" height="14" rx="2" fill="#ebedf0"><title>2025-02-04 : 0 participants</title></rect>
<rect x="430" y="72" width="14" height="14" rx="2" fill="#ebedf0"><title>2025-02-05 : 0 participants</title></rect>
<rect x="430" y="88" width="14" height="14" rx="2" fill="#ebedf0"><title>2025-02-06 : 0 participants</title></rect>
<rect x="430" y="104" width="14" height="14" rx="2" fill="#ebedf0"><title>2025-02-07 : 0 participants</title></rect>
<rect x="430" y="120" width="14" height="14" rx="2" fill="#ebedf0"><title>2025-02-08 : 0 participants</title></rect>
<rect x="430" y="136" width="14" height="14" rx="2" fill="#ebedf0"><title>2025-02-09 : 0 participants</title></rect>
<rect x="446" y="40" width="14" height="14" rx="2" fill="#ebedf0"><title>2025-02-10 : 0 participants</title></rect>
<rect x="446" y="56" width="14" height="14" rx="2" fill="#ebedf0"><title>2025-02-11 : 0 participants</title></rect>
<rect x="446" y="72" width="14" height="14" rx="2" fill="#ebedf0"><title>2025-02-12 : 0 participants</title></rect>
<rect x="446" y="88" width="14" height="14" rx="2" fill="#ebedf0"><title>2025-02-13 : 0 participants</title></rect>
<rect x="446" y="104" width="14" height="14" rx="2" fill="#ebedf0"><title>2025-02-14 : 0 participants</title></rect>
<rect x="446" y="120" width="14" height="14" rx="2" fill="#ebedf0"><title>2025-02-15 : 0 participants</title></rect>
<rect x="446" y="136" width="14" height="14" rx="2" fill="#ebedf0"><title>2025-02-16 : 0 participants</title></rect>
<rect x="462" y="40" width="14" height="14" rx="2" fill="#ebedf0"><title>2025-02-17 : 0 participants</title></rect>
<rect x="462" y="56" width="14" height="14" rx="2" fill="#ebedf0"><title>2025-02-18 : 0 participants</title></rect>
<rect x="462" y="72" width="14" height="14" rx="2" fill="#ebedf0"><title>2025-02-19 : 0 participants</title></rect>
<rect x="462" y="88" width="14" height="14" rx="2" fill="#ebedf0"><title>2025-02-20 : 0 participants</title></rect>
<rect x="462" y="104" width="14" height="14" rx="2" fill="#ebedf0"><title>2025-02-21 : 0 participants</title></rect>
<rect x="462" y="120" width="14" height="14" rx="2" fill="#ebedf0"><title>2025-02-22 : 0 participants</title></rect>
<rect x="462" y="136" width="14" height="14" rx="2" fill="#ebedf0"><title>2025-02-23 : 0 participants</title></rect>
<rect x="478" y="40" width="14" height="14" rx="2" fill="#ebedf0"><title>2025-02-24 : 0 participants</title></rect>
<rect x="478" y="56" width="14" height="14" rx="2" fill="#ebedf0"><title>2025-02-25 : 0 participants</title></rect>
<rect x="478" y="72" width="14" height="14" rx="2" fill="#ebedf0"><title>2025-02-26 : 0 participants</title></rect>
<rect x="478" y="88" width="14" height="14" rx="2" fill="#ebedf0"><title>2025-02-27 : 0 participants</title></rect>
<rect x="478" y="104" width="14" height="14" rx="2" fill="#ebedf0"><title>2025-02-28 : 0 participants</title></rect>
<rect x="478" y="120" width="14" height="14" rx="2" fill="#ebedf0"><title>2025-03-01 : 0 participants</title></rect>
<rect x="478" y="136" width="14" height="14" rx="2" fill="#ebedf0"><title>2025-03-02 : 0 participants</title></rect>
<rect x="494" y="40" width="14" height="14" rx="2" fill="#ebedf0"><title>2025-03-03 : 0 participants</title></rect>
<rect x="494" y="56" width="14" height="14" rx="2" fill="#ebedf0"><title>2025-03-04 : 0 participants</title></rect>
<rect x="494" y="72" width="14" height="14" rx="2" fill="#ebedf0"><title>2025-03-05 : 0 participants</title></rect>
<rect x="494" y="88" width="14" height="14" rx="2" fill="#ebedf0"><title>2025-03-06 : 0 participants</title></rect>
<rect x="494" y="104" width="14" height="14" rx="2" fill="#ebedf0"><title>2025-03-07 : 0 participants</title></rect>
<rect x="494" y="120" width="14" height="14" rx="2" fill="#ebedf0"><title>2025-03-08 : 0 participants</title></rect>
<rect x="494" y="136" width="14" height="14" rx="2" fill="#ebedf0"><title>2025-03-09 : 0 participants</title></rect>
<rect x="510" y="40" width="14" height="14" rx="2" fill="#ebedf0"><title>2025-03-10 : 0 participants</title></rect>
<rect x="510" y="56" width="14" height="14" rx="2" fill="#ebedf0"><title>2025-03-11 : 0 participants</title></rect>
<rect x="510" y="72" width="14" height="14" rx="2" fill="#ebedf0"><title>2025-03-12 : 0 participants</title></rect>
<rect x="510" y="88" width="14" height="14" rx="2" fill="#ebedf0"><title>2025-03-13 : 0 participants</title></rect>
<rect x="510" y="104" width="14" height="14" rx="2" fill="#ebedf0"><title>2025-03-14 : 0 participants</title></rect>
<rect x="510" y="120" width="14" height="14" rx="2" fill="#ebedf0"><title>2025-03-15 : 0 participants</title></rect>
<rect x="510" y="136" width="14" height="14" rx="2" fill="#ebedf0"><title>2025-03-16 : 0 participants</title></rect>
<rect x="526" y="40" width="14" height="14" rx="2" fill="#ebedf0"><title>2025-03-17 : 0 participants</title></rect>
<rect x="526" y="56" width="14" height="14" rx="2" fill="#ebedf0"><title>2025-03-18 : 0 participants</title></rect>
<rect x="526" y="72" width="14" height="14" rx="2" fill="#ebedf0"><title>2025-03-19 : 0 participants</title></rect>
<rect x="526" y="88" width="14" height="14" rx="2" fill="#ebedf0"><title>2025-03-20 : 0 participants</title></rect>
<rect x="526" y="104" width="14" height="14" rx="2" fill="#ebedf0"><title>2025-03-21 : 0 participants</title></rect>
<rect x="526" y="120" width="14" height="14" rx="2" fill="#ebedf0"><title>2025-03-22 : 0 participants</title></rect>
<rect x="526" y="136" width="14" height="14" rx="2" fill="#ebedf0"><title>2025-03-23 : 0 participants</title></rect>
<rect x="542" y="40" width="14" height="14" rx="2" fill="#ebedf0"><title>2025-03-24 : 0 participants</title></rect>
<rect x="542" y="56" width="14" height="14" rx="2" fill="#ebedf0"><title>2025-03-25 : 0 participants</title></rect>
<rect x="542" y="72" width="14" height="14" rx="2" fill="#ebedf0"><title>2025-03-26 : 0 participants</title></rect>
<rect x="542" y="88" width="14" height="14" rx="2" fill="#ebedf0"><title>2025-03-27 : 0 participants</title></rect>
<rect x="542" y="104" width="14" height="14" rx="2" fill="#ebedf0"><title>2025-03-28 : 0 participants</title></rect>
<rect x="542" y="120" width="14" height="14" rx="2" fill="#ebedf0"><title>2025-03-29 : 0 participants</title></rect>
<rect x="542" y="136" width="14" height="14" rx="2" fill="#ebedf0"><title>2025-03-30 : 0 participants</title></rect>
<rect x="558" y="40" width="14" height="14" rx="2" fill="#ebedf0"><title>2025-03-31 : 0 participants</title></rect>
<rect x="558" y="56" width="14" height="14" rx="2" fill="#ebedf0"><title>2025-04-01 : 0 participants</title></rect>
<rect x="558" y="72" width="14" height="14" rx="2" fill="#ebedf0"><title>2025-04-02 : 0 participants</title></rect>
<rect x="558" y="88" width="14" height="14" rx="2" fill="#ebedf0"><title>2025-04-03 : 0 participants</title></rect>
<rect x="558" y="104" width="14" height="14" rx="2" fill="#ebedf0"><title>2025-04-04 : 0 participants</title></rect>
<rect x="558" y="120" width="14" height="14" rx="2" fill="#ebedf0"><title>2025-04-05 : 0 participants</title></rect>
<rect x="558" y="136" width="14" height="14" rx="2" fill="#ebedf0"><title>2025-04-06 : 0 participants</title></rect>
<rect x="574" y="40" width="14" height="14" rx="2" fill="#ebedf0"><title>2025-04-07 : 0 participants</title></rect>
<rect x="574" y="56" width="14" height="14" rx="2" fill="#ebedf0"><title>2025-04-08 : 0 participants</title></rect>
<rect x="574" y="72" width="14" height="14" rx="2" fill="#ebedf0"><title>2025-04-09 : 0 participants</title></rect>
<rect x="574" y="88" width="14" height="14" rx="2" fill="#ebedf0"><title>2025-04-10 : 0 participants</title></rect>
<rect x="574" y="104" width="14" height="14" rx="2" fill="#ebedf0"><title>2025-04-11 : 0 participants</title></rect>
<rect x="574" y="120" width="14" height="14" rx="2" fill="#ebedf0"><title>2025-04-12 : 0 participants</title></rect>
<rect x="574" y="136" width="14" height="14" rx="2" fill="#ebedf0"><title>2025-04-13 : 0 participants</title></rect>
<rect x="590" y="40" width="14" height="14" rx="2" fill="#ebedf0"><title>2025-04-14 : 0 participants</title></rect>
<rect x="590" y="56" width="14" height="14" rx="2" fill="#ebedf0"><title>2025-04-15 : 0 participants</title></rect>
<rect x="590" y="72" width="14" height="14" rx="2" fill="#ebedf0"><title>2025-04-16 : 0 participants</title></rect>
<rect x="590" y="88" width="14" height="14" rx="2" fill="#ebedf0"><title>2025-04-17 : 0 participants</title></rect>
<rect x="590" y="104" width="14" height="14" rx="2" fill="#ebedf0"><title>2025-04-18 : 0 participants</title></rect>
<rect x="590" y="120" width="14" height="14" rx="2" fill="#ebedf0"><title>2025-04-19 : 0 participants</title></rect>
<rect x="590" y="136" width="14" height="14" rx="2" fill="#ebedf0"><title>2025-04-20 : 0 participants</title></rect>
<rect x="606" y="40" width="14" height="14" rx="2" fill="#ebedf0"><title>2025-04-21 : 0 participants</title></rect>
<rect x="606" y="56" width="14" height="14" rx="2" fill="#ebedf0"><title>2025-04-22 : 0 participants</title></rect>
<rect x="606" y="72" width="14" height="14" rx="2" fill="#ebedf0"><title>2025-04-23 : 0 participants</title></rect>
<rect x="606" y="88" width="14" height="14" rx="2" fill="#ebedf0"><title>2025-04-24 : 0 participants</title></rect>
<rect x="606" y="104" width="14" height="14" rx="2" fill="#ebedf0"><title>2025-04-25 : 0 participants</title></rect>
<rect x="606" y="120" width="14" height="14" rx="2" fill="#ebedf0"><title>2025-04-26 : 0 participants</title></rect>
<rect x="606" y="136" width="14" height="14" rx="2" fill="#ebedf0"><title>2025-04-27 : 0 participants</title></rect>
<rect x="622" y="40" width="14" height="14" rx="2" fill="#ebedf0"><title>2025-04-28 : 0 participants</title></rect>
<rect x="622" y="56" width="14" height="14" rx="2" fill="#ebedf0"><title>2025-04-29 : 0 participants</title></rect>
<rect x="622" y="72" width="14" height="14" rx="2" fill="#ebedf0"><title>2025-04-30 : 0 participants</title></rect>
<rect x="622" y="88" width="14" height="14" rx="2" fill="#ebedf0"><title>2025-05-01 : 0 participants</title></rect>
<rect x="622" y="104" width="14" height="14" rx="2" fill="#ebedf0"><title>2025-05-02 : 0 participants</title></rect>
<rect x="622" y="120" width="14" height="14" rx="2" fill="#ebedf0"><title>2025-05-03 : 0 participants</title></rect>
<rect x="622" y="136" width="14" height="14" rx="2" fill="#ebedf0"><title>2025-05-04 : 0 participants</title></rect>
<rect x="638" y="40" width="14" height="14" rx="2" fill="#ebedf0"><title>2025-05-05 : 0 participants</title></rect>
<rect x="638" y="56" width="14" height="14" rx="2" fill="#ebedf0"><title>2025-05-06 : 0 participants</title></rect>
<rect x="638" y="72" width="14" height="14" rx="2" fill="#ebedf0"><title>2025-05-07 : 0 participants</title></rect>
<rect x="638" y="88" width="14" height="14" rx="2" fill="#ebedf0"><title>2025-05-08 : 0 participants</title></rect>
<rect x="638" y="104" width="14" height="14" rx="2" fill="#ebedf0"><title>2025-05-09 : 0 participants</title></rect>
<rect x="638" y="120" width="14" height="14" rx="2" fill="#ebedf0"><title>2025-05-10 : 0 participants</title></rect>
<rect x="638" y="136" width="14" height="14" rx="2" fill="#ebedf0"><title>2025-05-11 : 0 participants</title></rect>
<rect x="654" y="40" width="14" height="14" rx="2" fill="#ebedf0"><title>2025-05-12 : 0 participants</title></rect>
<rect x="654" y="56" width="14" height="14" rx="2" fill="#ebedf0"><title>2025-05-13 : 0 participants</title></rect>
<rect x="654" y="72" width="14" height="14" rx="2" fill="#ebedf0"><title>2025-05-14 : 0 participants</title></rect>
<rect x="654" y="88" width="14" height="14" rx="2" fill="#ebedf0"><title>2025-05-15 : 0 participants</title></rect>
<rect x="654" y="104" width="14" height="14" rx="2" fill="#ebedf0"><title>2025-05-16 : 0 participants</title></rect>
<rect x="654" y="120" width="14" height="14" rx="2" fill="#ebedf0"><title>2025-05-17 : 0 participants</title></rect>
<rect x="654" y="136" width="14" height="14" rx="2" fill="#ebedf0"><title>2025-05-18 : 0 participants</title></rect>
<rect x="670" y="40" width="14" height="14" rx="2" fill="#ebedf0"><title>2025-05-19 : 0 participants</title></rect>
<rect x="670" y="56" width="14" height="14" rx="2" fill="#ebedf0"><title>2025-05-20 : 0 participants</title></rect>
<rect x="670" y="72" width="14" height="14" rx="2" fill="#ebedf0"><title>2025-05-21 : 0 participants</title></rect>
<rect x="670" y="88" width="14" height="14" rx="2" fill="#ebedf0"><title>2025-05-22 : 0 participants</title></rect>
<rect x="670" y="104" width="14" height="14" rx="2" fill="#ebedf0"><title>2025-05-23 : 0 participants</title></rect>
<rect x="670" y="120" width="14" height="14" rx="2" fill="#ebedf0"><title>2025-05-24 : 0 participants</title></rect>
<rect x="670" y="136" width="14" height="14" rx="2" fill="#ebedf0"><title>2025-05-25 : 0 participants</title></rect>
<rect x="686" y="40" width="14" height="14" rx="2" fill="#ebedf0"><title>2025-05-26 : 0 participants</title></rect>
<rect x="686" y="56" width="14" height="14" rx="2" fill="#ebedf0"><title>2025-05-27 : 0 participants</title></rect>
<rect x="686" y="72" width="14" height="14" rx="2" fill="#ebedf0"><title>2025-05-28 : 0 participants</title></rect>
<rect x="686" y="88" width="14" height="14" rx="2" fill="#ebedf0"><title>2025-05-29 : 0 participants</title></rect>
<rect x="686" y="104" width="14" height="14" rx="2" fill="#ebedf0"><title>2025-05-30 : 0 participants</title></rect>
<rect x="686" y="120" width="14" height="14" rx="2" fill="#ebedf0"><title>2025-05-31 : 0 participants</title></rect>
<rect x="686" y="136" width="14" height="14" rx="2" fill="#ebedf0"><title>2025-06-01 : 0 participants</title></rect>
<rect x="702" y="40" width="14" height="14" rx="2" fill="#ebedf0"><title>2025-06-02 : 0 participants</title></rect>
<rect x="702" y="56" width="14" height="14" rx="2" fill="#ebedf0"><title>2025-06-03 : 0 participants</title></rect>
<rect x="702" y="72" width="14" height="14" rx="2" fill="#ebedf0"><title>2025-06-04 : 0 participants</title></rect>
<rect x="702" y="88" width="14" height="14" rx="2" fill="#ebedf0"><title>2025-06-05 : 0 participants</title></rect>
<rect x="702" y="104" width="14" height="14" rx="2" fill="#ebedf0"><title>2025-06-06 : 0 participants</title></rect>
<rect x="702" y="120" width="14" height="14" rx="2" fill="#ebedf0"><title>2025-06-07 : 0 participants</title></rect>
<rect x="702" y="136" width="14" height="14" rx="2" fill="#ebedf0"><title>2025-06-08 : 0 participants</title></rect>
<rect x="718" y="40" width="14" height="14" rx="2" fill="#ebedf0"><title>2025-06-09 : 0 participants</title></rect>
<rect x="718" y="56" width="14" height="14" rx="2" fill="#ebedf0"><title>2025-06-10 : 0 participants</title></rect>
<rect x="718" y="72" width="14" height="14" rx="2" fill="#ebedf0"><title>2025-06-11 : 0 participants</title></rect>
<rect x="718" y="88" width="14" height="14" rx="2" fill="#ebedf0"><title>2025-06-12 : 0 participants</title></rect>
<rect x="718" y="104" width="14" height="14" rx="2" fill="#ebedf0"><title>2025-06-13 : 0 participants</title></rect>
<rect x="718" y="120" width="14" height="14" rx="2" fill="#ebedf0"><title>2025-06-14 : 0 participants</title></rect>
<rect x="718" y="136" width="14" height="14" rx="2" fill="#ebedf0"><title>2025-06-15 : 0 participants</title></rect>
<rect x="734" y="40" width="14" height="14" rx="2" fill="#ebedf0"><title>2025-06-16 : 0 participants</title></rect>
<rect x="734" y="56" width="14" height="14" rx="2" fill="#ebedf0"><title>2025-06-17 : 0 participants</title></rect>
<rect x="734" y="72" width="14" height="14" rx="2" fill="#ebedf0"><title>2025-06-18 : 0 participants</title></rect>
<rect x="734" y="88" width="14" height="14" rx="2" fill="#ebedf0"><title>2025-06-19 : 0 participants</title></rect>
<rect x="734" y="104" width="14" height="14" rx="2" fill="#ebedf0"><title>2025-06-20 : 0 participants</title></rect>
<rect x="734" y="120" width="14" height="14" rx="2" fill="#ebedf0"><title>2025-06-21 : 0 participants</title></rect>
<rect x="734" y="136" width="14" height="14" rx="2" fill="#ebedf0"><title>2025-06-22 : 0 participants</title></rect>
<rect x="750" y="40" width="14" height="14" rx="2" fill="#ebedf0"><title>2025-06-23 : 0 participants</title></rect>
<rect x="750" y="56" width="14" height="14" rx="2" fill="#ebedf0"><title>2025-06-24 : 0 participants</title></rect>
<rect x="750" y="72" width="14" height="14" rx="2" fill="#ebedf0"><title>2025-06-25 : 0 participants</title></rect>
<rect x="750" y="88" width="14" height="14" rx="2" fill="#ebedf0"><title>2025-06-26 : 0 participants</title></rect>
<rect x="750" y="104" width="14" height="14" rx="2" fill="#ebedf0"><title>2025-06-27 : 0 participants</title></rect>
<rect x="750" y="120" width="14" height="14" rx="2" fill="#ebedf0"><title>2025-06-28 : 0 participants</title></rect>
<rect x="750" y="136" width="14" height="14" rx="2" fill="#ebedf0"><title>2025-06-29 : 0 participants</title></rect>
<rect x="766" y="40" width="14" height="14" rx="2" fill="#ebedf0"><title>2025-06-30 : 0 participants</title></rect>
<rect x="766" y="56" width="14" height="14" rx="2" fill="#ebedf0"><title>2025-07-01 : 0 participants</title></rect>
<rect x="766" y="72" width="14" height="14" rx="2" fill="#ebedf0"><title>2025-07-02 : 0 participants</title></rect>
<rect x="766" y="88" width="14" height="14" rx="2" fill="#ebedf0"><title>2025-07-03 : 0 participants</title></rect>
<rect x="766" y="104" width="14" height="14" rx="2" fill="#ebedf0"><title>2025-07-04 : 0 participants</title></rect>
<rect x="766" y="120" width="14" height="14" rx="2" fill="#ebedf0"><title>2025-07-05 : 0 participants</title></rect>
<rect x="766" y="136" width="14" height="14" rx="2" fill="#ebedf0"><title>2025-07-06 : 0 participants</title></rect>
<rect x="782" y="40" width="14" height="14" rx="2" fill="#ebedf0"><title>2025-07-07 : 0 participants</title></rect>
<rect x="782" y="56" width="14" height="14" rx="2" fill="#ebedf0"><title>2025-07-08 : 0 participants</title></rect>
<rect x="782" y="72" width="14" height="14" rx="2" fill="#ebedf0"><title>2025-07-09 : 0 participants</title></rect>
<rect x="782" y="88" width="14" height="14" rx="2" fill="#ebedf0"><title>2025-07-10 : 0 participants</title></rect>
<rect x="782" y="104" width="14" height="14" rx="2" fill="#ebedf0"><title>2025-07-11 : 0 participants</title></rect>
<rect x="782" y="120" width="14" height="14" rx="2" fill="#ebedf0"><title>2025-07-12 : 0 participants</title></rect>
<rect x="782" y="136" width="14" height="14" rx="2" fill="#ebedf0"><title>2025-07-13 : 0 participants</title></rect>
<rect x="798" y="40" width="14" height="14" rx="2" fill="#ebedf0"><title>2025-07-14 : 0 participants</title></rect>
<rect x="798" y="56" width="14" height="14" rx="2" fill="#ebedf0"><title>2025-07-15 : 0 participants</title></rect>
<rect x="798" y="72" width="14" height="14" rx="2" fill="#ebedf0"><title>2025-07-16 : 0 participants</title></rect>
<rect x="798" y="88" width="14" height="14" rx="2" fill="#ebedf0"><title>2025-07-17 : 0 participants</title></rect>
<rect x="798" y="104" width="14" height="14" rx="2" fill="#ebedf0"><title>2025-07-18 : 0 participants</title></rect>
<rect x="798" y="120" width="14" height="14" rx="2" fill="#ebedf0"><title>2025-07-19 : 0 participants</title></rect>
<rect x="798" y="136" width="14" height="14" rx="2" fill="#ebedf0"><title>2025-07-20 : 0 participants</title></rect>
<rect x="814" y="40" width="14" height="14" rx="2" fill="#ebedf0"><title>2025-07-21 : 0 participants</title></rect>
<rect x="814" y="56" width="14" height="14" rx="2" fill="#ebedf0"><title>2025-07-22 : 0 participants</title></rect>
<rect x="814" y="72" width="14" height="14" rx="2" fill="#ebedf0"><title>2025-07-23 : 0 participants</title></rect>
<rect x="814" y="88" width="14" height="14" rx="2" fill="#ebedf0"><title>2025-07-24 : 0 participants</title></rect>
<rect x="814" y="104" width="14" height="14" rx="2" fill="#ebedf0"><title>2025-07-25 : 0 participants</title></rect>
<rect x="814" y="120" width="14" height="14" rx="2" fill="#ebedf0"><title>2025-07-26 : 0 participants</title></rect>
<rect x="814" y="136" width="14" height="14" rx="2" fill="#ebedf0"><title>2025-07-27 : 0 participants</title></rect>
<rect x="830" y="40" width="14" height="14" rx="2" fill="#ebedf0"><title>2025-07-28 : 0 participants</title></rect>
<rect x="830" y="56" width="14" height="14" rx="2" fill="#ebedf0"><title>2025-07-29 : 0 participants</title></rect>
<rect x="830" y="72" width="14" height="14" rx="2" fill="#ebedf0"><title>2025-07-30 : 0 participants</title></rect>
<rect x="830" y="88" width="14" height="14" rx="2" fill="#ebedf0"><title>2025-07-31 : 0 participants</title></rect>
<rect x="830" y="104" width="14" height="14" rx="2" fill="#ebedf0"><title>2025-08-01 : 0 participants</title></rect>
<rect x="830" y="120" width="14" height="14" rx="2" fill="#ebedf0"><title>2025-08-02 : 0 participants</title></rect>
<rect x="830" y="136" width="14" height="14" rx="2" fill="#ebedf0"><title>2025-08-03 : 0 participants</title></rect>
<rect x="846" y="40" width="14" height="14" rx="2" fill="#ebedf0"><title>2025-08-04 : 0 participants</title></rect>
<rect x="846" y="56" width="14" height="14" rx="2" fill="#ebedf0"><title>2025-08-05 : 0 participants</title></rect>
<rect x="846" y="72" width="14" height="14" rx="2" fill="#ebedf0"><title>2025-08-06 : 0 participants</title></rect>
<rect x="846" y="88" width="14" height="14" rx="2" fill="#ebedf0"><title>2025-08-07 : 0 participants</title></rect>
<rect x="846" y="104" width="14" height="14" rx="2" fill="#ebedf0"><title>2025-08-08 : 0 participants</title></rect>
<rect x="846" y="120" width="14" height="14" rx="2" fill="#ebedf0"><title>2025-08-09 : 0 participants</title></rect>
<rect x="846" y="136" width="14" height="14" rx="2" fill="#ebedf0"><title>2025-08-10 : 0 participants</title></rect>
<rect x="862" y="40" width="14" height="14" rx="2" fill="#ebedf0"><title>2025-08-11 : 0 participants</title></rect>
<rect x="862" y="56" width="14" height="14" rx="2" fill="#ebedf0"><title>2025-08-12 : 0 participants</title></rect>
<rect x="862" y="72" width="14" height="14" rx="2" fill="#ebedf0"><title>2025-08-13 : 0 participants</title></rect>
<rect x="862" y="88" width="14" height="14" rx="2" fill="#ebedf0"><title>2025-08-14 : 0 participants</title></rect>
<rect x="862" y="104" width="14" height="14" rx="2" fill="#ebedf0"><title>2025-08-15 : 0 participants</title></rect>
</svg>